Coordinates
version=1
nRows=19
nColumns=34
inDegrees=yes

Units are S.I. units (second, meters, Newtons, ...)
If the header above contains a line with 'inDegrees', this indicates whether rotational values are in degrees (yes) or radians (no).

endheader
time	pelvis_tilt	pelvis_list	pelvis_rotation	pelvis_tx	pelvis_ty	pelvis_tz	hip_flexion_r	hip_adduction_r	hip_rotation_r	knee_angle_r	ankle_angle_r	subtalar_angle_r	mtp_angle_r	hip_flexion_l	hip_adduction_l	hip_rotation_l	knee_angle_l	ankle_angle_l	subtalar_angle_l	mtp_angle_l	lumbar_extension	lumbar_bending	lumbar_rotation	arm_flex_r	arm_add_r	arm_rot_r	elbow_flex_r	pro_sup_r	arm_flex_l	arm_add_l	arm_rot_l	elbow_flex_l	pro_sup_l
      0.00000000	     12.51317269	      1.15681841	      0.46644811	      1.94410856	      0.67376777	     -0.84975897	     67.82363300	     -1.63726734	      5.46822898	     93.63924064	      3.38622583	    -10.95611753	      0.00000000	     66.31535924	     -4.78083894	     -6.47913307	     96.98136993	      1.98261875	    -12.38723194	      0.00000000	    -33.80255162	     -1.56757066	      5.41213326	     36.48027199	     -9.15713651	     70.46897124	    109.84810530	    105.48158854	     47.85609900	     -0.70557945	     76.79945030	    100.14124064	     87.61427187
      0.00833330	     13.73148395	     -0.83793592	      2.03927062	      1.94510035	      0.67307115	     -0.85288477	     67.09019235	     -0.69900794	      4.25540610	     94.79401678	      9.19367644	     -9.87872588	      0.00000000	     67.87153355	     -0.81963349	     -2.30202789	     98.41067754	      8.21512233	    -14.79741089	      0.00000000	    -34.66049154	      1.44437408	      2.37528980	     39.15407502	     -6.84453424	     76.86076484	    107.56219291	    104.20404721	     47.96164777	     -3.51046299	     78.45809588	    102.25928149	     83.09642409
      0.01666670	     14.38724770	     -0.96832806	      2.09393548	      1.94552932	      0.67304942	     -0.85378963	     67.26252008	     -1.14591975	      4.11137109	     96.13269394	     13.30894341	     -7.57839262	      0.00000000	     67.78418440	      1.19834505	     -1.06530242	     98.23018491	      7.50568058	    -18.90148066	      0.00000000	    -35.25064473	      1.98443339	      3.36802439	     38.27087587	     -7.37147144	     78.07215772	    106.92199108	     98.92713312	     48.11032658	     -3.06739356	     80.08363919	    102.74992907	     71.25778475
      0.02500000	     15.50687575	     -0.71753533	      2.07615808	      1.94497481	      0.67425068	     -0.85372410	     66.02927730	     -1.13262426	      4.22448279	     95.66774323	     15.35876304	     -5.77133669	      0.00000000	     66.83930997	      1.97439177	     -0.63492341	     98.65733886	      7.09997353	    -19.73972151	      0.00000000	    -36.42876500	      2.21278964	      3.56575814	     38.57151599	     -7.01866758	     78.98333306	    106.70758631	     98.64551689	     48.12400902	     -2.80736314	     79.82063230	    102.69624746	     70.45599748
      0.03333330	     15.80119393	     -0.28147918	      1.95346303	      1.94515438	      0.67495470	     -0.85309727	     65.38358548	     -1.08961048	      4.56653857	     95.34344782	     16.72426542	     -5.40346925	      0.00000000	     66.45679454	      2.48093414	     -0.57845216	     98.56839246	      6.04980731	    -21.33876720	      0.00000000	    -36.69196534	      2.23346318	      3.02736735	     39.24368675	     -6.13172236	     80.28414975	    105.42784647	     94.12547034	     47.61792401	     -3.32229640	     79.67093273	    103.90441177	     61.76991075
      0.04166670	     16.00336449	      0.23112588	      1.84278561	      1.94456916	      0.67575826	     -0.85253611	     64.98188743	     -1.25112085	      5.17658167	     95.04540215	     17.02257259	     -5.08145828	      0.00000000	     66.03038768	      2.79707953	     -0.94684357	     98.29241464	      5.33507783	    -22.06816342	      0.00000000	    -36.95462327	      1.61454531	      3.17370328	     39.08220834	     -6.01513165	     79.57528516	    104.96075779	     93.69290342	     47.92577996	     -2.80492328	     80.21397961	    104.19114961	     61.38294885
      0.05000000	     15.95854590	      0.41390942	      1.90832825	      1.94442102	      0.67583439	     -0.85255728	     64.84763383	     -1.47425090	      5.49758498	     94.83689095	     16.83193640	     -4.95818953	      0.00000000	     65.97868281	      2.98832153	     -1.02488952	     98.09374328	      5.09712007	    -22.26255007	      0.00000000	    -36.91997889	      1.51355623	      3.16385234	     39.28131116	     -5.85651834	     79.31154621	    104.84505140	     93.55404835	     47.89365212	     -2.43552112	     80.47878281	    104.47492848	     61.26356816
      0.05833330	     15.99797707	      0.96533445	      1.99042354	      1.94478045	      0.67632323	     -0.85240824	     64.77290998	     -1.90577731	      6.12508547	     94.90026944	     16.70143154	     -4.85718928	      0.00000000	     65.68226002	      3.37537395	     -1.49946819	     97.66723431	      4.60619685	    -23.15089838	      0.00000000	    -37.02139857	      0.83437204	      2.81285476	     39.06912768	     -5.62694454	     78.69379986	    104.51983883	     92.94808117	     48.54290533	     -2.52551195	     81.31100815	    104.85089179	     60.71463947
      0.06666670	     15.97087025	      0.93141581	      2.02864377	      1.94460682	      0.67601857	     -0.85206032	     64.78693649	     -1.94081846	      6.16631574	     94.93021219	     16.68548762	     -4.84519217	      0.00000000	     65.63764416	      3.32482632	     -1.47770896	     97.52681007	      4.63320621	    -23.17633670	      0.00000000	    -36.99564707	      0.83310239	      2.79678627	     39.10175750	     -5.61207480	     78.66515721	    104.52788163	     92.93196087	     48.54645463	     -2.48076668	     81.32464534	    104.87368540	     60.70087198
      0.07500000	     15.94682946	      1.30573145	      2.35704490	      1.94462532	      0.67642134	     -0.85246971	     64.83052445	     -2.57082452	      6.36314008	     95.05382312	     16.12243845	     -4.46455819	      0.00000000	     65.56372179	      3.87998917	     -1.68315493	     97.18650699	      4.23017300	    -23.96678449	      0.00000000	    -37.04706323	      0.33142064	      3.05378100	     38.53815815	     -6.13977939	     77.66327015	    105.22692355	     86.49536507	     49.39332338	     -1.65405116	     82.95290160	    104.62518930	     54.44362148
      0.08333330	     15.91616035	      1.43672724	      2.59431117	      1.94449423	      0.67633784	     -0.85257835	     64.86199506	     -2.89248660	      6.38814178	     95.12661279	     15.70390109	     -4.44355271	      0.00000000	     65.54969115	      4.16615363	     -1.70935531	     97.07535531	      4.29728796	    -23.91228464	      0.00000000	    -37.09108202	      0.31339830	      2.77582932	     38.54578335	     -6.09085243	     77.70706404	    105.22477671	     86.44046629	     49.35598508	     -1.59055779	     83.03305974	    104.83940749	     54.39807004
      0.09166670	     15.91255766	      1.44168594	      2.65021055	      1.94409270	      0.67620830	     -0.85229240	     64.88164900	     -2.90896057	      6.36299453	     95.19512412	     15.66346805	     -4.44110344	      0.00000000	     65.54135697	      4.15374776	     -1.70708896	     96.97573601	      4.30427692	    -23.90954108	      0.00000000	    -37.09749264	      0.30817928	      2.74759295	     38.55645157	     -6.09358370	     77.70260170	    105.23463850	     86.43515801	     49.35679708	     -1.59806590	     83.04132348	    104.84315119	     54.39448893
      0.10000000	     15.89276843	      1.58521470	      3.03530766	      1.94463276	      0.67616320	     -0.85215561	     64.94090095	     -3.38169611	      6.26465685	     95.33068262	     15.17298726	     -4.49232329	      0.00000000	     65.58323167	      4.56055965	     -1.65204802	     96.94386501	      4.26385195	    -23.80986396	      0.00000000	    -37.18146537	      0.31482166	      2.31249561	     38.60380655	     -6.06516468	     77.67335715	    105.53966653	     86.35919232	     49.22089766	     -1.73121141	     83.28637316	    104.83921148	     54.35406172
      0.10833330	     15.89829893	      1.60741068	      3.08816580	      1.94490419	      0.67652870	     -0.85212519	     64.89716513	     -3.41352959	      6.26635828	     95.26065192	     15.20901476	     -4.53432844	      0.00000000	     65.61082546	      4.57613873	     -1.65850458	     97.00748431	      4.27253992	    -23.80766320	      0.00000000	    -37.16913907	      0.29338832	      2.29262215	     38.60919080	     -6.06854227	     77.67508122	    105.56390126	     86.35117459	     49.19582369	     -1.74480328	     83.31294571	    104.85094795	     54.35141146
      0.11666670	     15.85961650	      1.69079426	      3.38516421	      1.94536705	      0.67696070	     -0.85236301	     64.80882772	     -3.73319293	      6.15883701	     95.18022372	     15.43072963	     -4.83728533	      0.00000000	     65.59506888	      4.88210441	     -1.59639546	     96.92434257	      4.37481120	    -23.67617054	      0.00000000	    -37.18417400	      0.26951795	      1.98272783	     38.62669199	     -6.19885374	     77.68058223	    105.82335428	     86.26517464	     48.88317534	     -1.89926219	     83.67043265	    104.92396007	     54.33297476
      0.12500000	     15.78464925	      1.70619090	      3.44767871	      1.94476046	      0.67760347	     -0.85234278	     64.78283490	     -3.78985980	      6.10168210	     94.98292018	     15.43325515	     -4.82949543	      0.00000000	     65.60376641	      4.92140730	     -1.59543685	     96.81640611	      4.38373771	    -23.63558616	      0.00000000	    -37.19973078	      0.25072982	      1.93908037	     38.65538466	     -6.19552823	     77.67065985	    105.87754004	     86.24277087	     48.90428176	     -1.94284420	     83.70163090	    104.93470020	     54.32869531
      0.13333330	     15.80533005	      1.71865685	      3.76554144	      1.94479925	      0.67655937	     -0.85249216	     64.76324178	     -4.12498090	      5.93625284	     95.03365362	     15.47449225	     -4.87388454	      0.00000000	     65.65056245	      5.20889317	     -1.45744706	     96.84401941	      4.37381794	    -23.34689575	      0.00000000	    -37.25639269	      0.32041043	      1.54803999	     38.72545948	     -6.22183846	     77.67439805	    106.22716346	     86.11029053	     49.00079190	     -2.08679385	     83.94037945	    105.02055236	     54.31863574
      0.14166670	     15.80986092	      1.72117913	      3.76712021	      1.94520957	      0.67658266	     -0.85255348	     64.76389110	     -4.12530029	      5.93622642	     95.03438541	     15.47440114	     -4.87370151	      0.00000000	     65.65318835	      5.20682110	     -1.45560786	     96.84289804	      4.37444056	    -23.34702205	      0.00000000	    -37.25664096	      0.32035328	      1.54805738	     38.72566886	     -6.22176369	     77.67460715	    106.22750575	     86.11003690	     49.00119655	     -2.08690439	     83.94044226	    105.02082642	     54.31863114
      0.15000000	     15.78012017	      1.72703571	      3.77595661	      1.94535270	      0.67737047	     -0.85245904	     64.75571509	     -4.13192695	      5.93560830	     95.05148320	     15.47892088	     -4.87468094	      0.00000000	     65.63265652	      5.20254722	     -1.44909443	     96.86124459	      4.37775839	    -23.34716133	      0.00000000	    -37.25269774	      0.31969126	      1.54885966	     38.72525889	     -6.22088173	     77.67781904	    106.23122697	     86.10851078	     49.00413584	     -2.08750255	     83.94065528	    105.02374605	     54.31881127
